<svg width="133" height="70" viewBox="0 0 133 70" fill="none" xmlns="http://www.w3.org/2000/svg">
<path fill-rule="evenodd" clip-rule="evenodd" d="M21.1892 47.9106L13.9226 19.7545H21.1278L26.31 39.9198V47.9106H21.1892Z" fill="white"/>
<path fill-rule="evenodd" clip-rule="evenodd" d="M32.1233 47.9106L39.39 19.7545H32.1882L27.006 39.9198V47.9106H32.1233Z" fill="white"/>
<path fill-rule="evenodd" clip-rule="evenodd" d="M44.6984 19.4977H51.9684V47.9106H44.6984V19.4977Z" fill="white"/>
<path fill-rule="evenodd" clip-rule="evenodd" d="M52.661 19.4977C52.661 20.7644 52.661 22.0346 52.661 23.3014C58.2423 27.4988 59.1293 39.485 52.661 44.2302C52.661 45.4558 52.661 46.6815 52.661 47.9071C68.6203 44.5862 68.4259 22.8939 52.661 19.4977Z" fill="white"/>
<path fill-rule="evenodd" clip-rule="evenodd" d="M69.9166 19.4977H77.1833V25.5712L69.9166 32.802V19.4977ZM77.1833 36.253V47.914H69.9166V43.4941L77.1833 36.253Z" fill="white"/>
<path fill-rule="evenodd" clip-rule="evenodd" d="M82.652 30.8026L89.8845 47.9106H82.6827L77.4698 35.9655L82.652 30.8026Z" fill="white"/>
<path fill-rule="evenodd" clip-rule="evenodd" d="M69.9166 33.7059V42.5903L92.8014 19.7887L113.738 40.5463H122.847L93.0198 10.7229L69.9166 33.7059Z" fill="white"/>
<path fill-rule="evenodd" clip-rule="evenodd" d="M92.2317 21.261L90.6112 22.9112L108.256 40.5464H112.763L92.8014 20.6926L92.2317 21.261Z" fill="#B2B2B2"/>
<path fill-rule="evenodd" clip-rule="evenodd" d="M112.148 25.3933H119.418V36.2121L112.148 28.9471V25.3933Z" fill="white"/>
<path d="M56.9697 54.7408V54.0868H59.3237V56.1547C58.9621 56.4423 58.5902 56.6614 58.2047 56.8087C57.8192 56.9559 57.4235 57.0278 57.0209 57.0278C56.4751 57.0278 55.977 56.9114 55.5301 56.6751C55.0831 56.4423 54.7454 56.1 54.5202 55.6583C54.2917 55.2132 54.1791 54.7168 54.1791 54.169C54.1791 53.6247 54.2917 53.118 54.5168 52.6455C54.742 52.1765 55.0695 51.8238 55.4925 51.5979C55.9156 51.3685 56.4068 51.2555 56.9595 51.2555C57.3621 51.2555 57.7237 51.3205 58.0512 51.4506C58.3753 51.5807 58.6312 51.7622 58.8154 51.995C58.9996 52.2278 59.1395 52.5359 59.235 52.9091L58.5698 53.0906C58.4845 52.8064 58.3821 52.5839 58.2593 52.4195C58.1365 52.2586 57.9591 52.1285 57.7271 52.0292C57.4985 51.9334 57.2427 51.882 56.9629 51.882C56.6286 51.882 56.3386 51.9334 56.093 52.0361C55.8473 52.1388 55.6529 52.2723 55.4994 52.4435C55.3492 52.6113 55.2333 52.7961 55.148 52.9947C55.0081 53.3405 54.9364 53.7171 54.9364 54.1211C54.9364 54.6209 55.0217 55.0386 55.1923 55.3741C55.3629 55.7097 55.6119 55.9596 55.936 56.1205C56.2635 56.2814 56.6081 56.3636 56.9732 56.3636C57.2904 56.3636 57.6009 56.302 57.9045 56.1787C58.2081 56.0555 58.4367 55.9219 58.5936 55.7816V54.7339H56.9697V54.7408ZM61.7084 56.9319V51.3479H64.175C64.6697 51.3479 65.0483 51.3993 65.3042 51.4986C65.5635 51.5979 65.7682 51.7759 65.9217 52.0292C66.0752 52.2826 66.1537 52.5633 66.1537 52.8715C66.1537 53.2686 66.024 53.6007 65.7716 53.8746C65.5157 54.1451 65.1234 54.3162 64.5878 54.3916C64.7822 54.484 64.9323 54.5799 65.0313 54.6689C65.2462 54.8674 65.4509 55.1139 65.6385 55.4118L66.6006 56.9319H65.6795L64.9426 55.7713C64.7276 55.4358 64.5502 55.179 64.4138 55.001C64.2739 54.8229 64.1511 54.6997 64.0385 54.6278C63.9293 54.5593 63.8168 54.508 63.7042 54.4806C63.6223 54.4635 63.4858 54.4532 63.2948 54.4532H62.4419V56.9319H61.7084ZM62.4487 53.813H64.0283C64.366 53.813 64.6253 53.7787 64.8163 53.7068C65.004 53.6384 65.1507 53.5254 65.2462 53.3713C65.3451 53.2172 65.3929 53.0529 65.3929 52.8715C65.3929 52.6078 65.2974 52.3887 65.1063 52.2175C64.9153 52.0464 64.6151 51.9642 64.2057 51.9642H62.4453V53.813H62.4487ZM68.361 54.2135C68.361 53.2891 68.61 52.5633 69.1047 52.0395C69.5994 51.5157 70.2407 51.2555 71.0254 51.2555C71.5406 51.2555 72.0011 51.3787 72.4139 51.6252C72.8267 51.8717 73.1406 52.2141 73.3555 52.6558C73.5704 53.094 73.6796 53.5938 73.6796 54.1519C73.6796 54.7168 73.567 55.2235 73.3384 55.6686C73.1099 56.1171 72.7892 56.4526 72.3696 56.682C71.9499 56.9114 71.4996 57.0278 71.0186 57.0278C70.4932 57.0278 70.0258 56.9011 69.613 56.6477C69.2002 56.3944 68.8864 56.0486 68.6748 55.6104C68.4701 55.1687 68.361 54.7031 68.361 54.2135ZM69.1252 54.2272C69.1252 54.8983 69.306 55.4289 69.6642 55.8124C70.0258 56.1992 70.4761 56.391 71.0186 56.391C71.5713 56.391 72.0284 56.1958 72.3866 55.8055C72.7448 55.4152 72.9222 54.8606 72.9222 54.1451C72.9222 53.6931 72.8472 53.296 72.6937 52.957C72.5401 52.6181 72.3184 52.3579 72.0216 52.1696C71.7248 51.9847 71.3973 51.8889 71.0288 51.8889C70.5068 51.8889 70.0599 52.0669 69.6847 52.4264C69.3128 52.7927 69.1252 53.3884 69.1252 54.2272ZM79.5577 51.3479H80.2946V54.573C80.2946 55.1345 80.2298 55.5796 80.107 55.9117C79.9808 56.2403 79.7522 56.5108 79.4247 56.7162C79.0938 56.9216 78.6639 57.0278 78.1283 57.0278C77.6097 57.0278 77.1833 56.9388 76.8524 56.7573C76.5214 56.5758 76.286 56.3157 76.1428 55.9733C76.0029 55.6309 75.9312 55.1653 75.9312 54.573V51.3479H76.6681V54.5696C76.6681 55.0557 76.7125 55.4118 76.8012 55.6412C76.8899 55.8706 77.0434 56.0486 77.2617 56.1719C77.4801 56.2951 77.7462 56.3602 78.0601 56.3602C78.5991 56.3602 78.9846 56.2369 79.2132 55.9904C79.4417 55.7439 79.5577 55.2714 79.5577 54.5696V51.3479ZM82.809 56.9319V51.3479H84.9105C85.2789 51.3479 85.5621 51.365 85.7566 51.4027C86.0295 51.4472 86.2581 51.5362 86.4457 51.6629C86.6299 51.793 86.78 51.971 86.8926 52.2004C87.0052 52.4298 87.0598 52.6832 87.0598 52.9605C87.0598 53.4329 86.9097 53.8335 86.6094 54.1622C86.3092 54.4908 85.7634 54.6552 84.9753 54.6552H83.5493V56.9319H82.809ZM83.5459 54.0013H84.9821C85.4598 54.0013 85.7941 53.9122 85.9954 53.7342C86.1932 53.5562 86.2956 53.3063 86.2956 52.9844C86.2956 52.7516 86.2376 52.5531 86.1182 52.3853C85.9988 52.2175 85.8453 52.108 85.6542 52.0566C85.5314 52.0258 85.2994 52.0087 84.9685 52.0087H83.5459V54.0013Z" fill="white"/>
<path fill-rule="evenodd" clip-rule="evenodd" d="M89.4001 33.2471H92.7947V36.6502H89.4001V33.2471Z" fill="white"/>
<path fill-rule="evenodd" clip-rule="evenodd" d="M94.1559 33.2471H97.5504V36.6502H94.1559V33.2471Z" fill="white"/>
<path fill-rule="evenodd" clip-rule="evenodd" d="M89.4001 37.9136H92.7947V41.3201H89.4001V37.9136Z" fill="white"/>
<path fill-rule="evenodd" clip-rule="evenodd" d="M94.1559 37.9136H97.5504V41.3201H94.1559V37.9136Z" fill="white"/>
</svg>
